<svg width="1063" height="277" viewBox="0 0 1063 277" fill="none" xmlns="http://www.w3.org/2000/svg">
    <path
        d="M183.068 111.293C183.068 125.193 179.877 137.955 173.497 149.577C167.116 160.971 157.317 170.2 144.1 177.264C130.883 184.329 114.476 187.861 94.8777 187.861H58.6446V274H0.192972V34.0409H94.8777C114.02 34.0409 130.199 37.3451 143.416 43.9537C156.634 50.5623 166.546 59.6775 173.155 71.2995C179.764 82.9214 183.068 96.2525 183.068 111.293ZM90.434 141.373C101.6 141.373 109.918 138.752 115.387 133.511C120.856 128.27 123.591 120.864 123.591 111.293C123.591 101.722 120.856 94.3155 115.387 89.0742C109.918 83.833 101.6 81.2123 90.434 81.2123H58.6446V141.373H90.434ZM271.95 115.053C278.786 104.57 287.332 96.3664 297.586 90.4415C307.841 84.2887 319.235 81.2123 331.768 81.2123V143.082H315.703C301.118 143.082 290.18 146.272 282.888 152.653C275.596 158.806 271.95 169.744 271.95 185.468V274H213.498V83.2633H271.95V115.053ZM348.085 178.29C348.085 158.692 351.731 141.487 359.023 126.675C366.543 111.862 376.684 100.468 389.446 92.4925C402.207 84.5166 416.45 80.5287 432.173 80.5287C445.618 80.5287 457.354 83.2632 467.381 88.7324C477.636 94.2016 485.498 101.38 490.967 110.267V83.2633H549.418V274H490.967V246.996C485.27 255.883 477.294 263.062 467.039 268.531C457.012 274 445.277 276.735 431.832 276.735C416.336 276.735 402.207 272.747 389.446 264.771C376.684 256.567 366.543 245.059 359.023 230.247C351.731 215.207 348.085 197.888 348.085 178.29ZM490.967 178.632C490.967 164.047 486.865 152.539 478.661 144.108C470.685 135.676 460.886 131.46 449.264 131.46C437.642 131.46 427.73 135.676 419.526 144.108C411.55 152.311 407.562 163.705 407.562 178.29C407.562 192.874 411.55 204.496 419.526 213.156C427.73 221.587 437.642 225.803 449.264 225.803C460.886 225.803 470.685 221.587 478.661 213.156C486.865 204.724 490.967 193.216 490.967 178.632ZM621.102 63.4376C610.847 63.4376 602.416 60.4751 595.807 54.5502C589.427 48.3974 586.236 40.8773 586.236 31.9899C586.236 22.8747 589.427 15.3546 595.807 9.42967C602.416 3.27687 610.847 0.200467 621.102 0.200467C631.129 0.200467 639.333 3.27687 645.713 9.42967C652.322 15.3546 655.626 22.8747 655.626 31.9899C655.626 40.8773 652.322 48.3974 645.713 54.5502C639.333 60.4751 631.129 63.4376 621.102 63.4376ZM650.157 83.2633V274H591.705V83.2633H650.157ZM770.11 276.735C753.475 276.735 738.662 273.886 725.673 268.189C712.684 262.492 702.429 254.744 694.909 244.945C687.389 234.918 683.173 223.752 682.262 211.447H740.03C740.713 218.055 743.79 223.41 749.259 227.512C754.728 231.614 761.45 233.665 769.426 233.665C776.718 233.665 782.302 232.298 786.176 229.563C790.277 226.601 792.328 222.841 792.328 218.283C792.328 212.814 789.48 208.826 783.783 206.319C778.086 203.585 768.857 200.622 756.095 197.432C742.422 194.242 731.028 190.937 721.913 187.519C712.798 183.873 704.936 178.29 698.327 170.77C691.719 163.022 688.414 152.653 688.414 139.664C688.414 128.726 691.377 118.813 697.302 109.925C703.455 100.81 712.342 93.6319 723.964 88.3906C735.814 83.1493 749.828 80.5287 766.008 80.5287C789.936 80.5287 808.736 86.4536 822.409 98.3034C836.309 110.153 844.285 125.877 846.336 145.475H792.328C791.417 138.866 788.454 133.625 783.441 129.751C778.655 125.877 772.275 123.94 764.299 123.94C757.462 123.94 752.221 125.307 748.575 128.042C744.929 130.549 743.106 134.081 743.106 138.638C743.106 144.108 745.954 148.209 751.652 150.944C757.576 153.679 766.692 156.413 778.997 159.148C793.126 162.794 804.634 166.44 813.521 170.086C822.409 173.504 830.157 179.201 836.765 187.177C843.602 194.925 847.134 205.408 847.362 218.625C847.362 229.791 844.171 239.818 837.791 248.705C831.638 257.365 822.637 264.201 810.787 269.214C799.165 274.228 785.606 276.735 770.11 276.735ZM1062.92 175.555C1062.92 181.024 1062.58 186.721 1061.9 192.646H929.61C930.522 204.496 934.282 213.611 940.89 219.992C947.727 226.145 956.044 229.221 965.843 229.221C980.428 229.221 990.568 223.069 996.265 210.763H1058.48C1055.29 223.296 1049.48 234.577 1041.04 244.603C1032.84 254.63 1022.47 262.492 1009.94 268.189C997.405 273.886 983.39 276.735 967.894 276.735C949.208 276.735 932.572 272.747 917.988 264.771C903.404 256.795 892.01 245.401 883.806 230.589C875.602 215.776 871.5 198.457 871.5 178.632C871.5 158.806 875.488 141.487 883.464 126.675C891.668 111.862 903.062 100.468 917.646 92.4925C932.231 84.5166 948.98 80.5287 967.894 80.5287C986.352 80.5287 1002.76 84.4027 1017.12 92.1506C1031.47 99.8986 1042.64 110.951 1050.62 125.307C1058.82 139.664 1062.92 156.413 1062.92 175.555ZM1003.1 160.173C1003.1 150.146 999.684 142.171 992.847 136.246C986.011 130.321 977.465 127.358 967.21 127.358C957.412 127.358 949.094 130.207 942.257 135.904C935.649 141.601 931.547 149.691 929.952 160.173H1003.1Z"
        fill="#A2A2A2" fill-opacity="0.2" />
</svg>