<svg width="309" height="313" viewBox="0 0 309 313" xmlns="http://www.w3.org/2000/svg">
    <path fill-rule="evenodd" clip-rule="evenodd"
        d="M154.479 19.3406L144.922 9.76607L154.479 0.191528L164.036 9.76607L154.479 19.3406ZM154.479 54.4473L147.046 47.0004L154.479 39.5535L161.912 47.0004L154.479 54.4473ZM154.479 90.6177L148.108 84.2347L154.479 77.8517L160.85 84.2347L154.479 90.6177ZM153.948 126.788L149.17 122.001L153.948 117.214L158.726 122.001L153.948 126.788ZM154.479 164.023L150.231 159.767L154.479 155.512L158.726 159.767L154.479 164.023ZM135.365 36.362L126.871 27.8513L135.365 19.3406L143.86 27.8513L135.365 36.362ZM135.896 72.5325L128.994 65.6176L135.896 58.7026L142.798 65.6176L135.896 72.5325ZM135.365 108.703L130.056 103.384L135.365 98.0646L140.675 103.384L135.365 108.703ZM135.365 144.873L131.118 140.618L135.365 136.363L139.613 140.618L135.365 144.873ZM135.896 182.108L132.18 178.384L135.896 174.661L139.613 178.384L135.896 182.108ZM117.314 54.4473L109.881 47.0004L117.314 39.5535L124.747 47.0004L117.314 54.4473ZM117.314 90.6177L110.943 84.2347L117.314 77.8517L123.685 84.2347L117.314 90.6177ZM116.783 126.788L112.005 122.001L116.783 117.214L121.561 122.001L116.783 126.788ZM117.314 164.023L113.066 159.767L117.314 155.512L121.561 159.767L117.314 164.023ZM117.314 200.193L114.128 197.002L117.314 193.81L120.499 197.002L117.314 200.193ZM98.7314 72.5325L91.8294 65.6176L98.7314 58.7026L105.633 65.6176L98.7314 72.5325ZM98.2005 108.703L92.8912 103.384L98.2005 98.0646L103.51 103.384L98.2005 108.703ZM98.2005 144.873L93.9531 140.618L98.2005 136.363L102.448 140.618L98.2005 144.873ZM98.7314 182.108L95.0149 178.384L98.7314 174.661L102.448 178.384L98.7314 182.108ZM98.2005 219.342L95.0149 216.151L98.2005 212.959L101.386 216.151L98.2005 219.342ZM79.0871 90.6177L72.716 84.2347L79.0871 77.8517L85.4582 84.2347L79.0871 90.6177ZM79.618 126.788L74.8397 122.001L79.618 117.214L84.3964 122.001L79.618 126.788ZM79.0871 164.023L74.8397 159.767L79.0871 155.512L83.3345 159.767L79.0871 164.023ZM79.0871 200.193L75.9015 197.002L79.0871 193.81L82.2727 197.002L79.0871 200.193ZM79.618 237.427L76.9634 234.768L79.618 232.108L82.2727 234.768L79.618 237.427ZM61.0355 108.703L55.7263 103.384L61.0355 98.0646L66.3448 103.384L61.0355 108.703ZM61.0355 144.873L56.7881 140.618L61.0355 136.363L65.283 140.618L61.0355 144.873ZM60.5046 182.108L56.7881 178.384L60.5046 174.661L64.2211 178.384L60.5046 182.108ZM61.0355 219.342L57.85 216.151L61.0355 212.959L64.2211 216.151L61.0355 219.342ZM61.0355 255.513L58.9118 253.385L61.0355 251.257L63.1593 253.385L61.0355 255.513ZM42.4531 126.788L37.6747 122.001L42.4531 117.214L47.2314 122.001L42.4531 126.788ZM41.9221 164.023L37.6747 159.767L41.9221 155.512L46.1696 159.767L41.9221 164.023ZM41.9221 200.193L38.7366 197.002L41.9221 193.81L45.1077 197.002L41.9221 200.193ZM42.4531 237.427L39.7984 234.768L42.4531 232.108L45.1077 234.768L42.4531 237.427ZM41.9221 274.662L39.7984 272.534L41.9221 270.406L44.0458 272.534L41.9221 274.662ZM22.8087 144.873L18.5613 140.618L22.8087 136.363L27.0562 140.618L22.8087 144.873ZM23.3397 182.108L19.6232 178.384L23.3397 174.661L27.0562 178.384L23.3397 182.108ZM22.8087 219.342L19.6232 216.151L22.8087 212.959L25.9943 216.151L22.8087 219.342ZM22.8087 255.513L20.685 253.385L22.8087 251.257L24.9324 253.385L22.8087 255.513ZM22.8087 293.811L20.685 291.683L22.8087 289.555L24.9324 291.683L22.8087 293.811ZM4.75719 164.023L0.509766 159.767L4.75719 155.512L9.00461 159.767L4.75719 164.023ZM4.75719 200.193L1.57162 197.002L4.75719 193.81L7.94276 197.002L4.75719 200.193ZM4.22626 237.427L1.57162 234.768L4.22626 232.108L6.8809 234.768L4.22626 237.427ZM4.75719 274.662L2.63348 272.534L4.75719 270.406L6.8809 272.534L4.75719 274.662ZM4.22626 311.896L2.63348 310.3L4.22626 308.704L5.81904 310.3L4.22626 311.896ZM173.592 36.362L165.097 27.8513L173.592 19.3406L182.087 27.8513L173.592 36.362ZM173.061 72.5325L166.159 65.6176L173.061 58.7026L179.963 65.6176L173.061 72.5325ZM173.592 108.703L168.283 103.384L173.592 98.0646L178.902 103.384L173.592 108.703ZM173.592 144.873L169.345 140.618L173.592 136.363L177.84 140.618L173.592 144.873ZM173.061 182.108L169.345 178.384L173.061 174.661L176.778 178.384L173.061 182.108ZM191.644 54.4473L184.211 47.0004L191.644 39.5535L199.077 47.0004L191.644 54.4473ZM191.644 90.6177L185.273 84.2347L191.644 77.8517L198.015 84.2347L191.644 90.6177ZM192.175 126.788L187.396 122.001L192.175 117.214L196.953 122.001L192.175 126.788ZM191.644 164.023L187.396 159.767L191.644 155.512L195.891 159.767L191.644 164.023ZM191.644 200.193L188.458 197.002L191.644 193.81L194.829 197.002L191.644 200.193ZM210.226 72.5325L203.324 65.6176L210.226 58.7026L217.128 65.6176L210.226 72.5325ZM210.757 108.703L205.448 103.384L210.757 98.0646L216.066 103.384L210.757 108.703ZM210.757 144.873L206.51 140.618L210.757 136.363L215.005 140.618L210.757 144.873ZM210.226 182.108L206.51 178.384L210.226 174.661L213.943 178.384L210.226 182.108ZM210.757 219.342L207.572 216.151L210.757 212.959L213.943 216.151L210.757 219.342ZM229.871 90.6177L223.499 84.2347L229.871 77.8517L236.242 84.2347L229.871 90.6177ZM229.34 126.788L224.561 122.001L229.34 117.214L234.118 122.001L229.34 126.788ZM229.871 164.023L225.623 159.767L229.871 155.512L234.118 159.767L229.871 164.023ZM229.871 200.193L226.685 197.002L229.871 193.81L233.056 197.002L229.871 200.193ZM229.34 237.427L226.685 234.768L229.34 232.108L231.994 234.768L229.34 237.427ZM247.922 108.703L242.613 103.384L247.922 98.0646L253.231 103.384L247.922 108.703ZM247.922 144.873L243.675 140.618L247.922 136.363L252.17 140.618L247.922 144.873ZM248.453 182.108L244.737 178.384L248.453 174.661L252.17 178.384L248.453 182.108ZM247.922 219.342L244.737 216.151L247.922 212.959L251.108 216.151L247.922 219.342ZM247.922 255.513L245.798 253.385L247.922 251.257L250.046 253.385L247.922 255.513ZM266.505 126.788L261.726 122.001L266.505 117.214L271.283 122.001L266.505 126.788ZM267.036 164.023L262.788 159.767L267.036 155.512L271.283 159.767L267.036 164.023ZM267.036 200.193L263.85 197.002L267.036 193.81L270.221 197.002L267.036 200.193ZM266.505 237.427L263.85 234.768L266.505 232.108L269.159 234.768L266.505 237.427ZM267.036 274.662L264.912 272.534L267.036 270.406L269.159 272.534L267.036 274.662ZM286.149 144.873L281.902 140.618L286.149 136.363L290.396 140.618L286.149 144.873ZM285.618 182.108L281.902 178.384L285.618 174.661L289.335 178.384L285.618 182.108ZM286.149 219.342L282.963 216.151L286.149 212.959L289.335 216.151L286.149 219.342ZM286.149 255.513L284.025 253.385L286.149 251.257L288.273 253.385L286.149 255.513ZM286.149 293.811L284.025 291.683L286.149 289.555L288.273 291.683L286.149 293.811ZM304.201 164.023L299.953 159.767L304.201 155.512L308.448 159.767L304.201 164.023ZM304.201 200.193L301.015 197.002L304.201 193.81L307.386 197.002L304.201 200.193ZM304.731 237.427L302.077 234.768L304.731 232.108L307.386 234.768L304.731 237.427ZM304.201 274.662L302.077 272.534L304.201 270.406L306.324 272.534L304.201 274.662ZM304.731 311.896L303.139 310.3L304.731 308.704L306.324 310.3L304.731 311.896Z"
        fill="black" />
</svg>