<svg width="48" height="48" viewBox="0 0 48 48" fill="none" xmlns="http://www.w3.org/2000/svg">
<g clip-path="url(#clip0_74_525)">
<path d="M38.7328 15.1861C38.0774 11.7588 36.2476 8.66732 33.5585 6.44374C30.8693 4.22016 27.4891 3.00366 23.9998 3.00366C20.5104 3.00366 17.1302 4.22016 14.4411 6.44374C11.752 8.66732 9.92222 11.7588 9.26679 15.1861C6.49833 15.6789 4.015 17.1911 2.30651 19.4245C0.59803 21.6579 -0.211587 24.4505 0.0373259 27.2514C0.286239 30.0523 1.57561 32.6583 3.65117 34.5555C5.72674 36.4527 8.43782 37.5032 11.2498 37.5001H11.9998V34.5001H11.2498C9.10862 34.5057 7.04929 33.678 5.50756 32.1921C3.96583 30.7063 3.06268 28.6789 2.9892 26.539C2.91573 24.3991 3.6777 22.3146 5.11389 20.7265C6.55007 19.1384 8.54778 18.1714 10.6843 18.0301L11.9383 17.9446L12.0733 16.6951C12.3934 13.7555 13.7878 11.0377 15.9889 9.06326C18.1901 7.0888 21.0428 5.99678 23.9998 5.99678C26.9567 5.99678 29.8095 7.0888 32.0106 9.06326C34.2118 11.0377 35.6062 13.7555 35.9263 16.6951L36.0613 17.9446L37.3153 18.0316C39.4475 18.1785 41.4393 19.1477 42.8707 20.7349C44.302 22.322 45.0611 24.403 44.9877 26.539C44.9144 28.675 44.0144 30.699 42.4775 32.1842C40.9406 33.6695 38.887 34.4998 36.7498 34.5001H35.9998V37.5001H36.7498C39.5618 37.5032 42.2728 36.4527 44.3484 34.5555C46.424 32.6583 47.7133 30.0523 47.9622 27.2514C48.2112 24.4505 47.4015 21.6579 45.6931 19.4245C43.9846 17.1911 41.5012 15.6789 38.7328 15.1861Z" fill="#58468C"/>
<path d="M34.5 33V30H31.3485C31.1539 29.0614 30.7812 28.1688 30.2505 27.3705L32.4855 25.1355L30.3645 23.0145L28.1295 25.2495C27.3312 24.7188 26.4386 24.3461 25.5 24.1515V21H22.5V24.1515C21.5614 24.3461 20.6688 24.7188 19.8705 25.2495L17.6355 23.0145L15.5145 25.1355L17.7495 27.3705C17.2188 28.1688 16.8461 29.0614 16.6515 30H13.5V33H16.6515C16.8461 33.9386 17.2188 34.8312 17.7495 35.6295L15.5145 37.8645L17.6355 39.9855L19.8705 37.7505C20.6688 38.2812 21.5614 38.6539 22.5 38.8485V42H25.5V38.8485C26.4386 38.6539 27.3312 38.2812 28.1295 37.7505L30.3645 39.9855L32.4855 37.8645L30.2505 35.6295C30.7812 34.8312 31.1539 33.9386 31.3485 33H34.5ZM24 36C23.11 36 22.24 35.7361 21.4999 35.2416C20.7599 34.7471 20.1831 34.0443 19.8425 33.2221C19.5019 32.3998 19.4128 31.495 19.5865 30.6221C19.7601 29.7492 20.1887 28.9474 20.818 28.318C21.4474 27.6887 22.2492 27.2601 23.1221 27.0865C23.995 26.9128 24.8998 27.0019 25.7221 27.3425C26.5443 27.6831 27.2471 28.2599 27.7416 28.9999C28.2361 29.74 28.5 30.61 28.5 31.5C28.4988 32.6931 28.0243 33.837 27.1807 34.6807C26.337 35.5243 25.1931 35.9988 24 36Z" fill="#58468C"/>
</g>
<defs>
<clipPath id="clip0_74_525">
<rect width="48" height="48" fill="white"/>
</clipPath>
</defs>
</svg>
