<svg width="48" height="48" viewBox="0 0 48 48" fill="none" xmlns="http://www.w3.org/2000/svg">
<path d="M18 22.5H9.165C9.44378 20.6435 10.1067 18.8656 11.1114 17.2797C12.1161 15.6939 13.4405 14.3351 15 13.29L17.685 11.49L16.035 9L13.35 10.8C11.0899 12.3061 9.23656 14.3468 7.9544 16.7411C6.67223 19.1353 6.00091 21.8091 6 24.525V34.5C6 35.2956 6.31607 36.0587 6.87868 36.6213C7.44129 37.1839 8.20435 37.5 9 37.5H18C18.7956 37.5 19.5587 37.1839 20.1213 36.6213C20.6839 36.0587 21 35.2956 21 34.5V25.5C21 24.7044 20.6839 23.9413 20.1213 23.3787C19.5587 22.8161 18.7956 22.5 18 22.5ZM39 22.5H30.165C30.4438 20.6435 31.1067 18.8656 32.1114 17.2797C33.1161 15.6939 34.4405 14.3351 36 13.29L38.685 11.49L37.05 9L34.35 10.8C32.0899 12.3061 30.2366 14.3468 28.9544 16.7411C27.6722 19.1353 27.0009 21.8091 27 24.525V34.5C27 35.2956 27.3161 36.0587 27.8787 36.6213C28.4413 37.1839 29.2044 37.5 30 37.5H39C39.7956 37.5 40.5587 37.1839 41.1213 36.6213C41.6839 36.0587 42 35.2956 42 34.5V25.5C42 24.7044 41.6839 23.9413 41.1213 23.3787C40.5587 22.8161 39.7956 22.5 39 22.5Z" fill="#58468C"/>
</svg>
