<svg width="150" height="150" viewBox="0 0 150 150" fill="none" xmlns="http://www.w3.org/2000/svg">
    <path
        d="M131.25 68.75V56.25H118.75V43.75C118.74 40.4378 117.42 37.2642 115.078 34.9221C112.736 32.58 109.562 31.2599 106.25 31.25H93.75V18.75H81.25V31.25H68.75V18.75H56.25V31.25H43.75C40.4378 31.2599 37.2642 32.58 34.9221 34.9221C32.58 37.2642 31.2599 40.4378 31.25 43.75V56.25H18.75V68.75H31.25V81.25H18.75V93.75H31.25V106.25C31.2599 109.562 32.58 112.736 34.9221 115.078C37.2642 117.42 40.4378 118.74 43.75 118.75H56.25V131.25H68.75V118.75H81.25V131.25H93.75V118.75H106.25C109.562 118.74 112.736 117.42 115.078 115.078C117.42 112.736 118.74 109.562 118.75 106.25V93.75H131.25V81.25H118.75V68.75H131.25ZM106.25 106.25H43.75V43.75H106.25V106.25Z"
        fill="rgba(193,172,255,0.499)" fill-opacity="0.25" />
    <path
        d="M71.0054 50H62.5991L50.0366 100H56.4554L59.3554 88.2812H73.8304L76.6554 100H83.2929L71.0054 50ZM60.1991 83.275L66.5616 55.9375H66.8491L72.9929 83.275H60.1991ZM89.0241 50H95.2741V100H89.0241V50Z"
        fill="rgba(193,172,255,0.499)" fill-opacity="0.25" />
</svg>