<svg width="36" height="36" viewBox="0 0 36 36" fill="none" xmlns="http://www.w3.org/2000/svg">
<path d="M7.875 4.5C7.57663 4.5 7.29048 4.61853 7.0795 4.82951C6.86853 5.04048 6.75 5.32663 6.75 5.625V29.25H4.5V31.5H18V28.125H9V6.75H27V9H29.25V5.625C29.25 5.32663 29.1315 5.04048 28.9205 4.82951C28.7095 4.61853 28.4234 4.5 28.125 4.5H7.875Z" fill="#58468C"/>
<path fill-rule="evenodd" clip-rule="evenodd" d="M21.375 11.25C21.0766 11.25 20.7905 11.3685 20.5795 11.5795C20.3685 11.7905 20.25 12.0766 20.25 12.375V30.375C20.25 30.6734 20.3685 30.9595 20.5795 31.1705C20.7905 31.3815 21.0766 31.5 21.375 31.5H30.375C30.6734 31.5 30.9595 31.3815 31.1705 31.1705C31.3815 30.9595 31.5 30.6734 31.5 30.375V12.375C31.5 12.0766 31.3815 11.7905 31.1705 11.5795C30.9595 11.3685 30.6734 11.25 30.375 11.25H21.375ZM24.75 28.125H27V25.875H24.75V28.125Z" fill="#58468C"/>
</svg>
