<svg width="48" height="48" viewBox="0 0 48 48" fill="none" xmlns="http://www.w3.org/2000/svg">
<path d="M29.508 20C31.44 20 33.008 21.568 33.008 23.5V32.998C33.008 35.3855 32.0596 37.6752 30.3714 39.3634C28.6832 41.0516 26.3935 42 24.006 42C21.6185 42 19.3288 41.0516 17.6406 39.3634C15.9524 37.6752 15.004 35.3855 15.004 32.998V23.5C15.004 21.568 16.57 20 18.504 20H29.508ZM29.508 23H18.504C18.3714 23 18.2442 23.0527 18.1504 23.1464C18.0567 23.2402 18.004 23.3674 18.004 23.5V32.998C18.004 34.5898 18.6364 36.1165 19.7619 37.2421C20.8875 38.3676 22.4142 39 24.006 39C25.5978 39 27.1245 38.3676 28.2501 37.2421C29.3756 36.1165 30.008 34.5898 30.008 32.998V23.5C30.008 23.3674 29.9553 23.2402 29.8616 23.1464C29.7678 23.0527 29.6406 23 29.508 23ZM7.5 20H14.262C13.5566 20.8523 13.1257 21.8982 13.026 23H7.5C7.36739 23 7.24022 23.0527 7.14645 23.1464C7.05268 23.2402 7 23.3674 7 23.5V29.998C6.99949 30.7539 7.17037 31.5001 7.49979 32.1804C7.82921 32.8607 8.3086 33.4575 8.9019 33.9259C9.4952 34.3943 10.187 34.722 10.9252 34.8845C11.6634 35.047 12.4289 35.04 13.164 34.864C13.334 35.872 13.644 36.834 14.07 37.728C13.4087 37.908 12.7187 37.9987 12 38C10.9493 38 9.90881 37.793 8.93807 37.3908C7.96734 36.9887 7.08533 36.3992 6.34244 35.6561C5.59954 34.9131 5.01031 34.0309 4.60839 33.0601C4.20647 32.0892 3.99974 31.0487 4 29.998V23.5C4 21.568 5.568 20 7.5 20ZM33.75 20H40.5C42.432 20 44 21.568 44 23.5V30C44.0003 31.2263 43.7186 32.4363 43.1768 33.5364C42.6349 34.6366 41.8474 35.5974 40.8751 36.3447C39.9028 37.092 38.7717 37.6058 37.5692 37.8464C36.3667 38.0869 35.125 38.0478 33.94 37.732C34.368 36.836 34.678 35.874 34.85 34.866C35.2193 34.954 35.6027 34.9987 36 35C37.3261 35 38.5979 34.4732 39.5355 33.5355C40.4732 32.5979 41 31.3261 41 30V23.5C41 23.3674 40.9473 23.2402 40.8536 23.1464C40.7598 23.0527 40.6326 23 40.5 23H34.986C34.8863 21.8982 34.4554 20.8523 33.75 20ZM24 6C25.5913 6 27.1174 6.63214 28.2426 7.75736C29.3679 8.88258 30 10.4087 30 12C30 13.5913 29.3679 15.1174 28.2426 16.2426C27.1174 17.3679 25.5913 18 24 18C22.4087 18 20.8826 17.3679 19.7574 16.2426C18.6321 15.1174 18 13.5913 18 12C18 10.4087 18.6321 8.88258 19.7574 7.75736C20.8826 6.63214 22.4087 6 24 6ZM37 8C38.3261 8 39.5979 8.52678 40.5355 9.46447C41.4732 10.4021 42 11.6739 42 13C42 14.3261 41.4732 15.5979 40.5355 16.5355C39.5979 17.4732 38.3261 18 37 18C35.6739 18 34.4021 17.4732 33.4645 16.5355C32.5268 15.5979 32 14.3261 32 13C32 11.6739 32.5268 10.4021 33.4645 9.46447C34.4021 8.52678 35.6739 8 37 8ZM11 8C12.3261 8 13.5979 8.52678 14.5355 9.46447C15.4732 10.4021 16 11.6739 16 13C16 14.3261 15.4732 15.5979 14.5355 16.5355C13.5979 17.4732 12.3261 18 11 18C9.67392 18 8.40215 17.4732 7.46447 16.5355C6.52678 15.5979 6 14.3261 6 13C6 11.6739 6.52678 10.4021 7.46447 9.46447C8.40215 8.52678 9.67392 8 11 8ZM24 9C23.2044 9 22.4413 9.31607 21.8787 9.87868C21.3161 10.4413 21 11.2044 21 12C21 12.7956 21.3161 13.5587 21.8787 14.1213C22.4413 14.6839 23.2044 15 24 15C24.7956 15 25.5587 14.6839 26.1213 14.1213C26.6839 13.5587 27 12.7956 27 12C27 11.2044 26.6839 10.4413 26.1213 9.87868C25.5587 9.31607 24.7956 9 24 9ZM37 11C36.4696 11 35.9609 11.2107 35.5858 11.5858C35.2107 11.9609 35 12.4696 35 13C35 13.5304 35.2107 14.0391 35.5858 14.4142C35.9609 14.7893 36.4696 15 37 15C37.5304 15 38.0391 14.7893 38.4142 14.4142C38.7893 14.0391 39 13.5304 39 13C39 12.4696 38.7893 11.9609 38.4142 11.5858C38.0391 11.2107 37.5304 11 37 11ZM11 11C10.4696 11 9.96086 11.2107 9.58579 11.5858C9.21071 11.9609 9 12.4696 9 13C9 13.5304 9.21071 14.0391 9.58579 14.4142C9.96086 14.7893 10.4696 15 11 15C11.5304 15 12.0391 14.7893 12.4142 14.4142C12.7893 14.0391 13 13.5304 13 13C13 12.4696 12.7893 11.9609 12.4142 11.5858C12.0391 11.2107 11.5304 11 11 11Z" fill="#58468C"/>
</svg>
