<svg width="80" height="80" viewBox="0 0 80 80" fill="none" xmlns="http://www.w3.org/2000/svg">
<path d="M20.0006 9.16663C20.001 8.69533 19.8683 8.2335 19.6176 7.83441C19.3669 7.43531 19.0085 7.11521 18.5837 6.91101C18.1589 6.70682 17.6851 6.62685 17.2169 6.68034C16.7486 6.73382 16.305 6.91857 15.9372 7.21329C11.5706 10.71 9.1939 13.7733 7.9439 16.44C7.0438 18.3301 6.6062 20.4073 6.66723 22.5C6.66723 25.6533 8.25723 28.4333 10.6806 30.0833C10.0144 30.6459 9.44464 31.3136 8.9939 32.06C7.40723 34.6266 6.66723 38.55 6.66723 44.1833C6.66723 49.89 7.4339 56.7433 8.6839 62.2166C9.3039 64.9366 10.0739 67.4466 10.9906 69.33C11.4472 70.2666 12.0039 71.18 12.6906 71.8966C13.3772 72.6 14.4339 73.35 15.8339 73.35C17.2339 73.35 18.2906 72.6 18.9739 71.8966C19.6697 71.1339 20.2431 70.2681 20.6739 69.33C21.5939 67.4433 22.3639 64.9366 22.9839 62.2133C24.2853 56.2893 24.9612 50.2451 25.0006 44.18C25.0006 38.5466 24.2606 34.6266 22.6739 32.06C22.2232 31.3136 21.6534 30.6459 20.9872 30.0833C22.224 29.2425 23.2364 28.112 23.9359 26.7902C24.6354 25.4684 25.001 23.9955 25.0006 22.5C25.0006 19.41 23.5472 17.2533 22.4406 15.6066L22.3439 15.4633C21.0439 13.5266 20.0006 11.9333 20.0006 9.16663ZM11.6672 22.5C11.6672 21.5066 11.6672 20.28 12.4739 18.5633C13.0339 17.36 14.0372 15.8333 15.8472 13.9933C16.4906 15.7166 17.3906 17.06 18.1539 18.1933L18.1939 18.2533C19.3839 20.0233 20.0006 21.0366 20.0006 22.5C20.0006 23.605 19.5616 24.6648 18.7802 25.4462C17.9988 26.2276 16.939 26.6666 15.8339 26.6666C14.7288 26.6666 13.669 26.2276 12.8876 25.4462C12.1062 24.6648 11.6672 23.605 11.6672 22.5ZM11.6672 44.1833C11.6672 38.7733 12.4206 36.0266 13.2472 34.6866C13.4987 34.2372 13.875 33.8702 14.3306 33.63C14.8032 33.4214 15.3179 33.3255 15.8339 33.35C16.5006 33.35 16.9772 33.4533 17.3372 33.63C17.6706 33.79 18.0439 34.08 18.4206 34.6866C19.2472 36.0266 20.0006 38.7733 20.0006 44.1833C20.0006 49.52 19.2739 56 18.1106 61.1033C17.5239 63.67 16.8572 65.7533 16.1806 67.14C16.073 67.3608 15.9574 67.5776 15.8339 67.79C15.7104 67.5776 15.5948 67.3608 15.4872 67.14C14.8106 65.7533 14.1439 63.6666 13.5572 61.1033C12.3419 55.5441 11.7084 49.8736 11.6672 44.1833ZM28.2806 46.9233C29.8848 47.6284 31.5902 48.0761 33.3339 48.25V40.8333C33.3339 39.4106 33.6141 38.0019 34.1585 36.6876C34.703 35.3732 35.5009 34.1789 36.5069 33.173C37.5129 32.167 38.7071 31.369 40.0215 30.8246C41.3359 30.2802 42.7446 30 44.1672 30H51.5839C51.3101 27.2715 50.3674 24.6528 48.8393 22.376C47.3112 20.0991 45.2449 18.2345 42.8237 16.9474C40.4024 15.6602 37.701 14.9904 34.9589 14.9973C32.2168 15.0041 29.5187 15.6874 27.1039 16.9866C26.5851 15.8922 25.974 14.844 25.2772 13.8533L25.1106 13.6066L24.5139 12.7C27.6894 10.9435 31.2551 10.0128 34.884 9.99324C38.5128 9.97365 42.0884 10.8658 45.2826 12.5879C48.4769 14.3099 51.1874 16.8067 53.1655 19.849C55.1436 22.8913 56.3259 26.3818 56.6039 30H62.5006C63.9232 30 65.3319 30.2802 66.6463 30.8246C67.9607 31.369 69.1549 32.167 70.1609 33.173C71.1669 34.1789 71.9648 35.3732 72.5093 36.6876C73.0537 38.0019 73.3339 39.4106 73.3339 40.8333V59.1666C73.3339 60.5893 73.0537 61.998 72.5093 63.3124C71.9648 64.6267 71.1669 65.821 70.1609 66.827C69.1549 67.8329 67.9607 68.6309 66.6463 69.1753C65.3319 69.7197 63.9232 70 62.5006 70H44.1672C41.2941 70 38.5386 68.8586 36.5069 66.827C34.4753 64.7953 33.3339 62.0398 33.3339 59.1666V53.27C31.4926 53.1295 29.6767 52.7543 27.9306 52.1533C28.0972 50.3866 28.2172 48.6266 28.2806 46.9233ZM62.5006 35H56.4139C55.7052 39.5407 53.572 43.7388 50.3224 46.9885C47.0727 50.2381 42.8746 52.3712 38.3339 53.08V59.1666C38.3339 62.3866 40.9472 65 44.1672 65H62.5006C64.0477 65 65.5314 64.3854 66.6253 63.2914C67.7193 62.1974 68.3339 60.7137 68.3339 59.1666V40.8333C68.3339 39.2862 67.7193 37.8025 66.6253 36.7085C65.5314 35.6145 64.0477 35 62.5006 35ZM38.3339 48C41.5351 47.3427 44.473 45.7607 46.7838 43.4499C49.0946 41.1391 50.6766 38.2011 51.3339 35H44.1672C42.6201 35 41.1364 35.6145 40.0424 36.7085C38.9485 37.8025 38.3339 39.2862 38.3339 40.8333V48Z" fill="#58468C"/>
</svg>
