<svg width="80" height="80" viewBox="0 0 80 80" fill="none" xmlns="http://www.w3.org/2000/svg">
<g clip-path="url(#clip0_97_102)">
<path fill-rule="evenodd" clip-rule="evenodd" d="M40 0.94397L39.424 1.94397L33.8456 11.5936H38V45.9776L8.2216 63.1696L6.144 59.5712L0 70.2264H1.1528L12.3 70.2328L10.2216 66.6344L40 49.4424L69.7784 66.6344L67.7 70.2328L80 70.2264L79.424 69.2264L73.856 59.5712L71.7784 63.1704L42 45.9784V11.5928H46.1544L40 0.94397Z" fill="#58468C"/>
<path fill-rule="evenodd" clip-rule="evenodd" d="M39.2466 22.7606L15.8499 38.1038C15.3107 38.4934 15.1659 38.9366 15.1562 39.3398V62.2678C15.1562 62.7718 15.4187 63.2406 15.8499 63.5038L39.2466 78.8462C39.8106 79.1542 40.3843 79.1022 40.7651 78.8382L64.1507 63.5038C64.3625 63.3745 64.5376 63.1929 64.659 62.9764C64.7805 62.76 64.8443 62.516 64.8442 62.2678V39.3398C64.8395 38.7286 64.5803 38.4062 64.1283 38.0886L40.7539 22.7606C40.1971 22.443 39.7603 22.5942 39.2466 22.7606ZM40.0002 25.6886L60.4123 39.2134L39.9875 52.9782L19.3843 39.339L40.0002 25.6886ZM18.0482 41.915L38.5539 55.4958V75.0358L18.0499 61.455L18.0482 41.915ZM61.9523 41.915V61.4542L41.4466 75.035V55.4942L61.9523 41.915Z" fill="#58468C"/>
</g>
<defs>
<clipPath id="clip0_97_102">
<rect width="80" height="80" fill="white"/>
</clipPath>
</defs>
</svg>
