<svg width="48" height="48" viewBox="0 0 48 48" fill="none" xmlns="http://www.w3.org/2000/svg">
<g clip-path="url(#clip0_74_528)">
<path d="M12 18C13.5913 18 15.1174 17.3679 16.2426 16.2426C17.3679 15.1174 18 13.5913 18 12M12 18C10.4087 18 8.88258 17.3679 7.75736 16.2426C6.63214 15.1174 6 13.5913 6 12M12 18V24M18 12C18 10.4087 17.3679 8.88258 16.2426 7.75736C15.1174 6.63214 13.5913 6 12 6M18 12H24M12 6C10.4087 6 8.88258 6.63214 7.75736 7.75736C6.63214 8.88258 6 10.4087 6 12M12 6V0M6 12H0M4 4L8 8M16 16L20 20M20 4L16 8M8 16L4 20M36 24C37.5913 24 39.1174 23.3679 40.2426 22.2426C41.3679 21.1174 42 19.5913 42 18M36 24C34.4087 24 32.8826 23.3679 31.7574 22.2426C30.6321 21.1174 30 19.5913 30 18M36 24V30M42 18C42 16.4087 41.3679 14.8826 40.2426 13.7574C39.1174 12.6321 37.5913 12 36 12M42 18H48M36 12C34.4087 12 32.8826 12.6321 31.7574 13.7574C30.6321 14.8826 30 16.4087 30 18M36 12V6M30 18H24M28 10L32 14M40 22L44 26M44 10L40 14M32 22L28 26M18 42C19.5913 42 21.1174 41.3679 22.2426 40.2426C23.3679 39.1174 24 37.5913 24 36M18 42C16.4087 42 14.8826 41.3679 13.7574 40.2426C12.6321 39.1174 12 37.5913 12 36M18 42V48M24 36C24 34.4087 23.3679 32.8826 22.2426 31.7574C21.1174 30.6321 19.5913 30 18 30M24 36H30M18 30C16.4087 30 14.8826 30.6321 13.7574 31.7574C12.6321 32.8826 12 34.4087 12 36M18 30V24M12 36H6M10 28L14 32M22 40L26 44M26 28L22 32M14 40L10 44" stroke="#58468C" stroke-width="4"/>
</g>
<defs>
<clipPath id="clip0_74_528">
<rect width="48" height="48" fill="white"/>
</clipPath>
</defs>
</svg>
