<svg width="48" height="48" viewBox="0 0 48 48" fill="none" xmlns="http://www.w3.org/2000/svg">
<path fill-rule="evenodd" clip-rule="evenodd" d="M12.9668 7.00488C12.9655 6.20958 13.28 5.44629 13.8412 4.8828C14.4025 4.31931 15.1645 4.00174 15.9598 3.99988L31.9328 3.97388C32.3268 3.97322 32.717 4.05017 33.0812 4.20033C33.4455 4.35049 33.7765 4.57091 34.0556 4.84902C34.3346 5.12714 34.5562 5.45748 34.7075 5.82121C34.8589 6.18494 34.9371 6.57492 34.9378 6.96888L34.9928 40.9559C34.9939 41.751 34.6792 42.514 34.118 43.0773C33.5568 43.6406 32.7949 43.958 31.9998 43.9599L16.0278 43.9859C15.6338 43.9865 15.2436 43.9096 14.8794 43.7594C14.5151 43.6093 14.1841 43.3889 13.905 43.1107C13.626 42.8326 13.4044 42.5023 13.2531 42.1386C13.1017 41.7748 13.0235 41.3848 13.0228 40.9909L12.9668 7.00488ZM14.9658 8.00188C14.9653 7.73924 15.0165 7.47906 15.1165 7.23621C15.2165 6.99336 15.3634 6.77258 15.5488 6.58649C15.7341 6.40041 15.9543 6.25265 16.1967 6.15165C16.4392 6.05066 16.6992 5.99841 16.9618 5.99788L30.9398 5.97588C31.4701 5.97508 31.9789 6.1849 32.3545 6.55919C32.7301 6.93349 32.9417 7.44162 32.9428 7.97188L32.9868 34.9619C32.9872 35.2245 32.9359 35.4847 32.8357 35.7275C32.7356 35.9703 32.5886 36.191 32.4031 36.377C32.2177 36.563 31.9974 36.7106 31.7549 36.8115C31.5124 36.9124 31.2524 36.9645 30.9898 36.9649L17.0128 36.9879C16.4825 36.9887 15.9737 36.7789 15.5981 36.4046C15.2225 36.0303 15.0109 35.5221 15.0098 34.9919L14.9658 8.00188ZM24.0098 41.9749C24.2722 41.9744 24.532 41.9221 24.7743 41.8212C25.0166 41.7203 25.2366 41.5727 25.4218 41.3867C25.607 41.2008 25.7538 40.9802 25.8537 40.7375C25.9537 40.4948 26.0048 40.2348 26.0043 39.9724C26.0038 39.7099 25.9516 39.4502 25.8506 39.2079C25.7497 38.9656 25.6021 38.7456 25.4161 38.5604C25.2302 38.3752 25.0096 38.2284 24.7669 38.1285C24.5242 38.0285 24.2642 37.9774 24.0018 37.9779C23.4719 37.9789 22.9641 38.1905 22.5902 38.5659C22.2162 38.9414 22.0067 39.45 22.0078 39.9799C22.0089 40.5098 22.2204 41.0176 22.5958 41.3915C22.9713 41.7655 23.4799 41.9759 24.0098 41.9749Z" fill="#58468C"/>
<path d="M23.1916 27.5399C21.6026 26.2239 20.2966 25.1419 19.3856 24.1239C18.4756 23.1089 17.9756 22.1738 17.9756 21.1568C17.9736 19.5008 19.3936 18.1998 21.2036 18.1978C22.2276 18.1978 23.2136 18.6338 23.8566 19.3228L23.9736 19.4488L24.0906 19.3228C24.7326 18.6328 25.7176 18.1948 26.7426 18.1938C28.5526 18.1918 29.9736 19.4908 29.9756 21.1468C29.9756 22.1648 29.4786 23.0999 28.5706 24.1169C27.6636 25.1339 26.3646 26.2148 24.7856 27.5299L24.7696 27.5438L23.9816 28.1958L23.1916 27.5399Z" fill="#58468C"/>
</svg>
