<svg width="48" height="48" viewBox="0 0 48 48" fill="none" xmlns="http://www.w3.org/2000/svg">
<path d="M23.9961 4C18.2961 4 14.6021 8.038 10.2321 9.51C8.4561 10.11 7.5661 10.408 7.2081 10.83C6.8481 11.25 6.7421 11.868 6.5321 13.1C4.2781 26.292 9.2041 38.488 20.9501 43.236C22.2121 43.746 22.8441 44 24.0021 44C25.1601 44 25.7941 43.744 27.0561 43.234C38.8021 38.488 43.7221 26.292 41.4681 13.1C41.2561 11.868 41.1521 11.25 40.7921 10.828C40.4321 10.406 39.5441 10.108 37.7681 9.51C33.3961 8.038 29.6961 4 23.9961 4Z" stroke="#58468C" stroke-width="3" stroke-linecap="round" stroke-linejoin="round"/>
<path d="M20.8998 13.002V16.96M13.9258 20.002H18.0298M29.9718 20.002H34.0758M29.9718 25.95H34.0758M13.9258 25.95H18.0298M20.8998 29.04V33M26.9498 29.04V33M26.9298 13.002V16.96M20.0298 28.938H27.9718C28.5022 28.938 29.0109 28.7272 29.386 28.3522C29.7611 27.9771 29.9718 27.4684 29.9718 26.938V18.96C29.9718 18.4295 29.7611 17.9208 29.386 17.5457C29.0109 17.1707 28.5022 16.96 27.9718 16.96H20.0298C19.4993 16.96 18.9906 17.1707 18.6156 17.5457C18.2405 17.9208 18.0298 18.4295 18.0298 18.96V26.938C18.0298 27.4684 18.2405 27.9771 18.6156 28.3522C18.9906 28.7272 19.4993 28.938 20.0298 28.938Z" stroke="#58468C" stroke-width="3" stroke-linecap="round" stroke-linejoin="round"/>
</svg>
