<svg width="80" height="80" viewBox="0 0 80 80" fill="none" xmlns="http://www.w3.org/2000/svg">
<path d="M17.0325 6.01501L13.5125 9.53001L18.75 14.765L22.265 11.25L17.0325 6.01501ZM62.97 6.01501L57.7325 11.25L61.25 14.765L66.485 9.53251L62.97 6.01501ZM40 7.57501C39.175 7.58168 38.3417 7.63502 37.5 7.73502H37.425C27.285 8.89752 19.215 17.09 17.8125 27.185C16.6925 35.31 20.0425 42.6775 25.625 47.4225C27.9082 49.3716 29.4527 52.0458 30 54.9975V69.9975H35.7C36.57 71.49 38.1575 72.4975 40 72.4975C41.8425 72.4975 43.43 71.49 44.3 69.9975H50V59.9975H50.235V57.0275C50.235 53.3625 52.14 49.6675 55.235 46.795C59.375 42.65 62.5 36.7625 62.5 30C62.5 17.65 52.335 7.46001 40 7.57501ZM40 12.575C49.6625 12.44 57.5 20.35 57.5 30C57.5 35.235 55.075 39.845 51.7175 43.2L51.7975 43.28C48.4623 46.3578 46.3051 50.5025 45.6975 55H34.7625C34.2125 50.715 32.375 46.5675 28.9025 43.5925C24.485 39.8425 21.8525 34.1925 22.7325 27.8125C23.825 19.9375 30.215 13.605 38.045 12.7375C38.6915 12.6479 39.3425 12.5944 39.995 12.5775L40 12.575ZM5 30V35H12.5V30H5ZM67.5 30V35H75V30H67.5ZM18.75 50.235L13.515 55.4675L17.0325 58.985L22.2625 53.75L18.75 50.235ZM61.25 50.235L57.735 53.75L62.9675 58.985L66.485 55.4675L61.25 50.235ZM35 60H45V65H35V60Z" fill="#58468C"/>
</svg>
