<svg width="139" height="139" viewBox="0 0 139 139" fill="none" xmlns="http://www.w3.org/2000/svg">
<g opacity="0.15">
<path d="M69.5 63.7083C72.6854 63.7083 75.4133 62.5751 77.6836 60.3086C79.954 58.0422 81.0872 55.3143 81.0833 52.125C81.0795 48.9357 79.9462 46.2098 77.6836 43.9472C75.421 41.6846 72.6931 40.5494 69.5 40.5417C66.3069 40.5339 63.5809 41.6691 61.3222 43.9472C59.0634 46.2252 57.9282 48.9512 57.9167 52.125C57.9051 55.2988 59.0403 58.0267 61.3222 60.3086C63.6041 62.5905 66.33 63.7238 69.5 63.7083ZM40.5417 121.625V110.042H63.7083V92.0875C58.9785 91.0257 54.7563 89.0237 51.042 86.0815C47.3276 83.1394 44.5997 79.4462 42.8583 75.0021C35.6188 74.1333 29.5626 70.973 24.6899 65.5211C19.8172 60.0692 17.3789 53.6733 17.375 46.3333V28.9583H40.5417V17.375H98.4583V28.9583H121.625V46.3333C121.625 53.6694 119.187 60.0654 114.31 65.5211C109.434 70.9769 103.377 74.1372 96.1417 75.0021C94.4042 79.4424 91.6782 83.1355 87.9638 86.0815C84.2494 89.0276 80.0254 91.0296 75.2917 92.0875V110.042H98.4583V121.625H40.5417ZM40.5417 62.55V40.5417H28.9583V46.3333C28.9583 50.0014 30.0201 53.3084 32.1438 56.2545C34.2674 59.2005 37.0667 61.299 40.5417 62.55ZM98.4583 62.55C101.933 61.2951 104.733 59.1947 106.856 56.2487C108.98 53.3026 110.042 49.9975 110.042 46.3333V40.5417H98.4583V62.55Z" fill="black"/>
</g>
</svg>
