<svg width="36" height="36" viewBox="0 0 36 36" fill="none" xmlns="http://www.w3.org/2000/svg">
<path fill-rule="evenodd" clip-rule="evenodd" d="M19.005 3.32556L31.755 10.4506C32.1293 10.6374 32.4441 10.9249 32.664 11.2808C32.8839 11.6366 33.0003 12.0467 33 12.4651V14.6251C33 15.6601 32.16 16.5001 31.125 16.5001H30V28.5001H31.5C31.8978 28.5001 32.2794 28.6581 32.5607 28.9394C32.842 29.2207 33 29.6022 33 30.0001C33 30.3979 32.842 30.7794 32.5607 31.0607C32.2794 31.342 31.8978 31.5001 31.5 31.5001H4.5C4.10218 31.5001 3.72064 31.342 3.43934 31.0607C3.15804 30.7794 3 30.3979 3 30.0001C3 29.6022 3.15804 29.2207 3.43934 28.9394C3.72064 28.6581 4.10218 28.5001 4.5 28.5001H6V16.5001H4.875C3.84 16.5001 3 15.6601 3 14.6251V12.4651C3 11.6821 3.405 10.9621 4.059 10.5541L16.9935 3.32556C17.306 3.16926 17.6506 3.08789 18 3.08789C18.3494 3.08789 18.6925 3.16926 19.005 3.32556ZM25.5 16.5001H10.5V28.5001H13.5V19.5001H16.5V28.5001H19.5V19.5001H22.5V28.5001H25.5V16.5001ZM18 9.00006C17.6022 9.00006 17.2206 9.1581 16.9393 9.4394C16.658 9.72071 16.5 10.1022 16.5 10.5001C16.5 10.8979 16.658 11.2794 16.9393 11.5607C17.2206 11.842 17.6022 12.0001 18 12.0001C18.3978 12.0001 18.7794 11.842 19.0607 11.5607C19.342 11.2794 19.5 10.8979 19.5 10.5001C19.5 10.1022 19.342 9.72071 19.0607 9.4394C18.7794 9.1581 18.3978 9.00006 18 9.00006Z" fill="#58468C"/>
</svg>
