<svg width="80" height="80" viewBox="0 0 80 80" fill="none" xmlns="http://www.w3.org/2000/svg">
<path d="M47.2917 22.7374C46.8981 21.6228 46.1684 20.6576 45.2034 19.975C44.2383 19.2924 43.0852 18.9259 41.9031 18.926H37.486C36.2297 18.9295 35.0188 19.3963 34.0853 20.2371C33.1518 21.0779 32.5613 22.2335 32.4268 23.4826C32.2923 24.7317 32.6234 25.9866 33.3566 27.0068C34.0897 28.027 35.1735 28.7408 36.4003 29.0117L43.1317 30.4802C44.5151 30.7752 45.7399 31.5728 46.5692 32.7187C47.3985 33.8645 47.7734 35.2773 47.6212 36.6835C47.4691 38.0898 46.8008 39.3897 45.7456 40.3317C44.6904 41.2737 43.3233 41.7908 41.9089 41.7831H38.1031C36.9211 41.7832 35.768 41.4167 34.8029 40.734C33.8378 40.0514 33.1082 39.0863 32.7146 37.9717M40.0003 18.926V13.2117M40.0003 47.4974V41.7831" stroke="#58468C" stroke-width="5.71429" stroke-linecap="round" stroke-linejoin="round"/>
<path d="M28.5722 77.143H51.4294M65.7151 28.7487C65.7468 24.1587 64.5493 19.644 62.247 15.6731C59.9447 11.7022 56.6215 8.42001 52.6223 6.16715C48.6232 3.9143 44.0939 2.77296 39.5047 2.86161C34.9156 2.95026 30.4338 4.26569 26.5246 6.67131C22.6155 9.07694 19.4215 12.4851 17.2743 16.5419C15.127 20.5987 14.1048 25.1564 14.3138 29.7416C14.5227 34.3269 15.9552 38.7727 18.4625 42.6174C20.9698 46.4622 24.4605 49.5657 28.5722 51.6058V60.1772C28.5722 60.935 28.8732 61.6617 29.4091 62.1975C29.9449 62.7334 30.6716 63.0344 31.4294 63.0344H48.5722C49.33 63.0344 50.0567 62.7334 50.5925 62.1975C51.1283 61.6617 51.4294 60.935 51.4294 60.1772V51.6058C55.7007 49.5014 59.3004 46.2474 61.824 42.2096C64.3477 38.1718 65.6952 33.5102 65.7151 28.7487Z" stroke="#58468C" stroke-width="5.71429" stroke-linecap="round" stroke-linejoin="round"/>
</svg>
