<svg width="170" height="84" viewBox="0 0 170 84" fill="none" xmlns="http://www.w3.org/2000/svg">
<path d="M40.8729 45.9872C40.8729 49.6188 39.9929 52.7756 38.233 55.4574C36.473 58.1392 33.9029 60.2064 30.5227 61.6591C27.1705 63.1117 23.0919 63.8381 18.2869 63.8381C16.1638 63.8381 14.0826 63.6984 12.0433 63.419C10.032 63.1397 8.09044 62.7346 6.21875 62.2038C4.375 61.6451 2.61506 60.9607 0.938921 60.1506V48.0824C3.84422 49.3674 6.86127 50.5268 9.99006 51.5604C13.1188 52.594 16.2197 53.1108 19.2926 53.1108C21.4157 53.1108 23.1198 52.8314 24.4048 52.2727C25.7178 51.714 26.6676 50.9458 27.2543 49.968C27.8409 48.9903 28.1342 47.8729 28.1342 46.6158C28.1342 45.0793 27.6174 43.7663 26.5838 42.6768C25.5502 41.5874 24.1255 40.5677 22.3097 39.6179C20.5218 38.6681 18.4964 37.6484 16.2337 36.5589C14.8089 35.8885 13.2585 35.0784 11.5824 34.1286C9.90625 33.1508 8.31392 31.9635 6.8054 30.5668C5.29688 29.17 4.05374 27.4799 3.07599 25.4964C2.12618 23.4851 1.65128 21.0826 1.65128 18.2891C1.65128 14.6295 2.48935 11.5007 4.16548 8.9027C5.84162 6.30469 8.23011 4.32126 11.331 2.95241C14.4598 1.55563 18.1473 0.857243 22.3935 0.857243C25.5781 0.857243 28.6091 1.23437 31.4865 1.98863C34.3918 2.71496 37.4228 3.77651 40.5795 5.17329L36.3892 15.272C33.5677 14.1267 31.0395 13.2467 28.8047 12.6321C26.5698 11.9896 24.2931 11.6683 21.9744 11.6683C20.3542 11.6683 18.9714 11.9337 17.826 12.4645C16.6806 12.9673 15.8146 13.6937 15.228 14.6435C14.6413 15.5653 14.348 16.6409 14.348 17.87C14.348 19.3227 14.767 20.5518 15.6051 21.5575C16.4711 22.5353 17.7562 23.4851 19.4602 24.407C21.1922 25.3288 23.3433 26.4044 25.9134 27.6335C29.0421 29.1141 31.71 30.6645 33.9169 32.2848C36.1518 33.8771 37.8698 35.7628 39.071 37.9418C40.2723 40.0928 40.8729 42.7746 40.8729 45.9872ZM44.267 16.152H58.2628L67.1044 42.5092C67.3838 43.3473 67.6212 44.1993 67.8168 45.0653C68.0123 45.9313 68.1799 46.8253 68.3196 47.7472C68.4593 48.669 68.571 49.6328 68.6548 50.6385H68.9063C69.0739 49.13 69.2974 47.7192 69.5767 46.4062C69.884 45.0933 70.2611 43.7943 70.7081 42.5092L79.3821 16.152H93.0845L73.2642 68.9922C72.063 72.2327 70.4986 74.9285 68.571 77.0795C66.6435 79.2585 64.4226 80.8928 61.9084 81.9822C59.4221 83.0717 56.6844 83.6165 53.6953 83.6165C52.2427 83.6165 50.9856 83.5327 49.924 83.3651C48.8625 83.2254 47.9545 83.0717 47.2003 82.9041V72.7635C47.7869 72.9032 48.5272 73.0289 49.4212 73.1406C50.3151 73.2524 51.2509 73.3082 52.2287 73.3082C54.0166 73.3082 55.553 72.9311 56.8381 72.1768C58.1231 71.4226 59.1986 70.4029 60.0646 69.1179C60.9306 67.8608 61.6151 66.478 62.1179 64.9695L62.8722 62.6648L44.267 16.152ZM126.44 15.272C131.44 15.272 135.463 16.6409 138.508 19.3786C141.553 22.0883 143.075 26.4463 143.075 32.4524V63H130.295V35.6371C130.295 32.2848 129.68 29.7566 128.451 28.0526C127.25 26.3485 125.35 25.4964 122.752 25.4964C118.841 25.4964 116.173 26.8234 114.749 29.4773C113.324 32.1312 112.612 35.9583 112.612 40.9588V63H99.831V16.152H109.594L111.312 22.1442H112.025C113.031 20.5239 114.274 19.2109 115.754 18.2053C117.263 17.1996 118.925 16.4593 120.741 15.9844C122.585 15.5095 124.484 15.272 126.44 15.272ZM154.431 57.0078C154.431 54.3819 155.143 52.5381 156.568 51.4766C158.021 50.415 159.767 49.8842 161.806 49.8842C163.79 49.8842 165.494 50.415 166.918 51.4766C168.371 52.5381 169.097 54.3819 169.097 57.0078C169.097 59.522 168.371 61.3378 166.918 62.4553C165.494 63.5727 163.79 64.1314 161.806 64.1314C159.767 64.1314 158.021 63.5727 156.568 62.4553C155.143 61.3378 154.431 59.522 154.431 57.0078Z" fill="#8000ff" fill-opacity="0.2"/>
</svg>
