<svg width="124" height="35" viewBox="0 0 124 35" fill="none" xmlns="http://www.w3.org/2000/svg">
<g clip-path="url(#clip0_61_217)">
<path d="M32.2402 0H37.9442V34.79H32.2402V0Z" fill="#17313B"/>
<path d="M57.7842 23.765C57.7842 29.155 53.3202 29.645 51.8322 29.645C48.3602 29.645 47.8642 26.46 47.8642 24.745V11.27H42.1602V24.5C42.1602 27.685 43.1522 30.625 45.1362 32.34C46.8722 34.055 49.1042 34.79 51.8322 34.79C53.8162 34.79 56.2962 34.3 57.7842 32.83V34.79H63.4882V11.27H57.7842V23.765Z" fill="#17313B"/>
<path d="M74.6475 2.69501H68.9435V11.27H64.7275V16.66H68.9435V34.79H74.6475V16.66H78.8635V11.27H74.6475V2.69501Z" fill="#17313B"/>
<path d="M96.72 27.685C95.48 28.665 93.744 29.4 92.008 29.4C88.04 29.4 85.312 26.46 85.312 22.54C85.312 18.62 88.04 15.925 92.008 15.925C93.744 15.925 95.48 16.415 96.72 17.64L97.464 18.375L101.432 14.7L100.44 13.965C98.208 12.005 95.232 10.78 92.008 10.78C85.064 10.78 79.856 15.925 79.856 22.785C79.856 29.645 85.064 34.79 92.008 34.79C95.232 34.79 98.208 33.565 100.44 31.605L101.432 30.87L97.464 26.95L96.72 27.685Z" fill="#17313B"/>
<path d="M121.52 13.23C119.784 11.515 118.048 10.78 115.32 10.78C113.336 10.78 111.352 11.27 109.864 12.74V0H104.16V34.79H109.864V21.805C109.864 16.415 113.584 15.925 115.072 15.925C118.544 15.925 118.296 19.11 118.296 20.825V34.545H124V21.07C124 17.885 123.256 14.945 121.52 13.23Z" fill="#17313B"/>
<path d="M91.76 26.7051C93.9515 26.7051 95.728 24.95 95.728 22.7851C95.728 20.6201 93.9515 18.8651 91.76 18.8651C89.5685 18.8651 87.792 20.6201 87.792 22.7851C87.792 24.95 89.5685 26.7051 91.76 26.7051Z" fill="#EF4335"/>
<path d="M24.304 26.215C22.32 28.175 19.344 29.4 16.12 29.4C9.92 29.4 5.456 24.5 5.456 17.885C5.456 11.27 9.92 6.37001 16.368 6.37001C19.344 6.37001 22.32 7.595 24.552 9.8L25.296 10.535L29.016 6.86L28.272 6.125C25.048 2.94 20.832 1.22501 16.368 1.22501C6.944 0.980005 0 8.33 0 17.885C0 27.44 6.944 34.79 16.12 34.79C20.584 34.79 25.048 33.075 28.024 29.89L28.768 29.155L25.048 25.48L24.304 26.215Z" fill="#17313B"/>
</g>
<defs>
<clipPath id="clip0_61_217">
<rect width="124" height="35" fill="white"/>
</clipPath>
</defs>
</svg>
