<svg width="142" height="40" viewBox="0 0 142 40" fill="none" xmlns="http://www.w3.org/2000/svg">
<path d="M37.3398 0H43.8283V40H37.3398V0Z" fill="#DEE0FF"/>
<path d="M66.3967 27.3237C66.3967 33.5209 61.3188 34.0843 59.6261 34.0843C55.6767 34.0843 55.1124 30.4223 55.1124 28.4505V12.9575H48.624V28.1688C48.624 31.8308 49.7524 35.211 52.0093 37.1829C53.984 39.1547 56.523 39.9998 59.6261 39.9998C61.883 39.9998 64.704 39.4364 66.3967 37.7463V39.9998H72.8851V12.9575H66.3967V27.3237Z" fill="#DEE0FF"/>
<path d="M85.5801 3.09863H79.0917V12.9578H74.2959V19.155H79.0917V40H85.5801V19.155H90.3759V12.9578H85.5801V3.09863Z" fill="#DEE0FF"/>
<path d="M110.688 31.8312C109.277 32.9579 107.302 33.803 105.328 33.803C100.814 33.803 97.7107 30.4227 97.7107 25.9157C97.7107 21.4086 100.814 18.31 105.328 18.31C107.302 18.31 109.277 18.8734 110.688 20.2819L111.534 21.1269L116.048 16.9016L114.919 16.0565C112.38 13.803 108.995 12.3945 105.328 12.3945C97.4286 12.3945 91.5044 18.31 91.5044 26.1973C91.5044 34.0847 97.4286 40.0002 105.328 40.0002C108.995 40.0002 112.38 38.5917 114.919 36.3382L116.048 35.4931L111.534 30.9861L110.688 31.8312Z" fill="#DEE0FF"/>
<path d="M138.898 15.2113C136.923 13.2394 134.948 12.3944 131.845 12.3944C129.588 12.3944 127.331 12.9577 125.639 14.6479V0H119.15V40H125.639V25.0704C125.639 18.8732 129.87 18.3099 131.563 18.3099C135.512 18.3099 135.23 21.9718 135.23 23.9437V39.7183H141.719V24.2254C141.719 20.5634 140.872 17.1831 138.898 15.2113Z" fill="#DEE0FF"/>
<path d="M105.045 30.704C107.538 30.704 109.559 28.6862 109.559 26.197C109.559 23.7078 107.538 21.6899 105.045 21.6899C102.553 21.6899 100.532 23.7078 100.532 26.197C100.532 28.6862 102.553 30.704 105.045 30.704Z" fill="#DEE0FF"/>
<path d="M28.3128 30.1406C26.056 32.3941 22.6707 33.8026 19.0033 33.8026C11.9507 33.8026 6.87282 28.1688 6.87282 20.5631C6.87282 12.9575 11.9507 7.3237 19.2854 7.3237C22.6707 7.3237 26.056 8.73215 28.5949 11.2674L29.4412 12.1124L33.6728 7.88708L32.8265 7.04201C29.1591 3.38004 24.3633 1.40821 19.2854 1.40821C8.56545 1.12652 0.666504 9.57722 0.666504 20.5631C0.666504 31.5491 8.56545 39.9998 19.0033 39.9998C24.0812 39.9998 29.1591 38.0279 32.5444 34.366L33.3907 33.5209L29.1591 29.2955L28.3128 30.1406Z" fill="#DEE0FF"/>
</svg>
