<svg width="155" height="40" viewBox="0 0 155 40" fill="none" xmlns="http://www.w3.org/2000/svg">
<g clip-path="url(#clip0_74_578)">
<path d="M14.9332 3.73333H18.3199C20.3824 3.43138 22.4881 3.69402 24.4132 4.49333C26.8137 5.91648 28.5608 8.22365 29.2799 10.92C29.7866 12.3333 29.7866 12.3333 31.0132 11.8267H31.9466V0.68H0.0932284V2.64H1.3999C2.54656 2.64 3.6399 3.14667 4.37323 4.02667C5.57323 5.96 5.78656 8.13333 5.78656 19.44C5.78656 31.44 5.5199 34.3733 4.37323 35.88C3.78656 36.6533 2.8799 37.1333 1.90656 37.1733C0.0932283 37.4933 0.0932284 37.4667 0.0932284 38.2533C-0.00828969 38.5195 -0.00828969 38.8138 0.0932284 39.08H20.1999C20.4666 38.5467 20.4666 37.9333 20.1999 37.4C19.7199 37.2667 19.2132 37.1733 18.7199 37.1067C18.1866 37.0533 17.6399 36.9333 17.1199 36.7867C16.3667 36.2516 15.7679 35.5273 15.384 34.6869C15.0001 33.8465 14.8446 32.9197 14.9332 32C14.6064 29.2033 14.455 26.3889 14.4799 23.5733V21.2533H15.6799C17.1466 21.2133 18.6399 21.3733 20.0799 21.72C20.7649 22.1382 21.3486 22.7031 21.7889 23.374C22.2293 24.0449 22.5154 24.8052 22.6266 25.6L22.8932 26.5067H24.7066V13.5067H23.0399L22.7732 14.7733C22.657 15.585 22.3514 16.3579 21.8812 17.0296C21.411 17.7013 20.7894 18.253 20.0666 18.64C19.3732 18.8533 18.6266 18.9067 17.9066 18.7867H14.4799V15.6133C14.4799 12.3333 14.6666 5.4 14.7866 4.32L14.9199 3.73333H14.9332ZM153.987 27.0133C152.571 24.7696 150.378 23.1269 147.827 22.4C145.875 21.7961 144.069 20.7977 142.52 19.4667C142.172 19.1359 141.91 18.7244 141.759 18.2686C141.608 17.8127 141.572 17.3266 141.653 16.8533C141.653 15.92 142.027 15.04 142.693 14.3867C143.613 13.44 144.973 13.0533 146.253 13.4133C147.548 13.7723 148.721 14.475 149.648 15.4469C150.575 16.4187 151.222 17.6235 151.52 18.9333C151.987 20.2667 152.053 20.2667 152.907 19.9067L153.44 19.7067V12.3867L153.067 12.2133C150.139 11.2003 147.038 10.7832 143.947 10.9867C141.28 11.0533 138.733 12.0933 136.813 13.92C135.944 14.7211 135.261 15.7038 134.814 16.7984C134.367 17.8929 134.166 19.0725 134.227 20.2533C134.244 22.059 134.966 23.7864 136.24 25.0667C137.663 26.4447 139.403 27.452 141.307 28C145.907 29.8 147.24 30.9333 147.24 33.0267C147.258 33.9118 146.973 34.7766 146.433 35.4775C145.892 36.1784 145.127 36.6733 144.267 36.88C143.227 37.1067 142.16 37.1067 141.12 36.88C139.766 36.3651 138.554 35.5336 137.587 34.455C136.62 33.3764 135.925 32.0821 135.56 30.68L135.173 29.7467H134.64C134.373 29.76 134.133 29.8133 133.893 29.92H133.6V38.2533H134.107C136.107 38.92 138.187 39.3733 140.28 39.6H143.253C144.547 39.6933 145.84 39.5867 147.093 39.2533C149.125 38.8858 150.973 37.8457 152.342 36.3004C153.711 34.7551 154.52 32.7943 154.64 30.7333C154.753 29.4518 154.523 28.1631 153.973 27L153.987 27.0133ZM125.987 11.8267C124.204 11.0888 122.287 10.7314 120.358 10.7773C118.43 10.8232 116.532 11.2715 114.787 12.0933C113.155 12.8787 111.707 13.9978 110.536 15.3782C109.365 16.7585 108.496 18.3694 107.987 20.1067C107.346 21.9927 107.074 23.9845 107.187 25.9733C107.16 27.0667 107.253 28.1467 107.453 29.2133C107.947 31.8435 109.234 34.2596 111.141 36.1376C113.047 38.0156 115.483 39.2656 118.12 39.72C119.853 39.9333 121.587 39.9333 123.32 39.72C125.107 39.4133 126.827 38.76 128.373 37.8133C129.647 37.1087 130.728 36.1013 131.52 34.88C131.469 34.6891 131.381 34.5103 131.259 34.3545C131.138 34.1987 130.986 34.0691 130.813 33.9733C130.467 34.0933 130.147 34.2533 129.853 34.4667C128.374 35.4316 126.632 35.9159 124.867 35.8533C123.694 35.9333 122.519 35.7537 121.424 35.3273C120.33 34.901 119.342 34.2383 118.533 33.3867C117.915 32.8156 117.405 32.1382 117.027 31.3867C116.101 29.5669 115.6 27.5612 115.56 25.52V24.3733H132.027V23.7867C132.067 23.2 132.067 22.6 132.027 22.0133C132.015 19.9336 131.451 17.8944 130.392 16.1044C129.333 14.3145 127.817 12.8381 126 11.8267H125.987ZM117.707 21.9867H115.627V20.2533C116.307 15.8267 118 13.1867 120.08 13.1867C122.16 13.1867 123.053 15.8 123.44 20.5867V21.92H121.653L117.707 21.9867ZM74.9732 10.8667C73.9514 10.8281 72.9356 11.0386 72.0132 11.48C70.0088 12.435 68.3839 14.0364 67.3999 16.0267L67.0132 16.7333V10.8667H66.8799C66.5066 10.8667 55.5199 13.04 55.1599 13.1867C54.7999 13.32 54.9199 13.36 54.9199 13.8933C54.9199 14.4267 54.9199 14.5067 55.1599 14.5333L56.3199 14.7733C56.9866 14.7733 57.5866 15.0933 57.9866 15.6133C58.7199 16.5867 58.8799 18.28 58.8799 25.5467C59.0132 28.8133 58.8799 32.08 58.4532 35.32C58.3509 35.8092 58.1001 36.2549 57.7349 36.5961C57.3698 36.9374 56.9082 37.1576 56.4132 37.2267L55.3999 37.44H54.9999V38.2533C54.8915 38.5274 54.8915 38.8326 54.9999 39.1067H71.6266V38.2533C71.6799 37.9867 71.6799 37.68 71.6266 37.4C70.6263 37.3644 69.6312 37.2394 68.6532 37.0267C68.1246 36.7547 67.6912 36.3286 67.4102 35.8048C67.1292 35.2809 67.014 34.6841 67.0799 34.0933C66.795 30.5944 66.6927 27.0829 66.7732 23.5733C66.8399 19.76 66.7732 19.52 67.1066 19.2667C68.1005 18.5116 69.3259 18.1251 70.5732 18.1733C71.7732 18.2 72.9199 18.4933 73.9732 19.0267C74.3332 19.2267 74.7199 19.3733 75.1332 19.4667C75.1332 19.4667 78.0932 12.36 78.0932 12.04C77.3199 11.1467 76.1466 10.7067 74.9732 10.8667ZM54.9466 23.2C54.8382 21.0948 54.2258 19.0465 53.1608 17.2273C52.0957 15.4082 50.6093 13.8715 48.8266 12.7467C46.6979 11.6137 44.3357 10.9892 41.9253 10.9221C39.5148 10.8551 37.1216 11.3472 34.9332 12.36C31.8504 13.9599 29.5152 16.7018 28.4266 20C27.3066 23.6667 27.3066 27.6 28.4266 31.2667C29.0118 33.2823 30.1044 35.114 31.5999 36.5867C33.4778 38.3881 35.8852 39.538 38.4666 39.8667C40.1199 40 41.7999 40 43.4532 39.8667C46.2449 39.5154 48.8496 38.276 50.8831 36.3313C52.9166 34.3867 54.271 31.8398 54.7466 29.0667C55.0399 27.12 55.1066 25.1467 54.9466 23.2ZM42.5866 37.8667C39.6266 38.76 37.3866 35.9067 36.6532 29.92C36.3866 26.7867 36.3866 23.6267 36.6532 20.4933C37.2399 15.68 38.7599 13.24 41.1066 13.24C42.0666 13.1867 42.9999 13.5867 43.5999 14.3333C45.5999 16.2933 46.5732 20.2 46.5732 26.0667C46.8266 29.4 46.2932 32.7333 45.0266 35.8133C44.4663 36.7221 43.6016 37.4025 42.5866 37.7333V37.8667ZM96.0799 11.4667C95.2389 11.3593 94.3876 11.3593 93.5466 11.4667C91.9466 11.4667 90.3466 11.8 88.8799 12.4667L87.9599 12.84V6.45333C88.1199 4.32 88.1199 2.14667 87.9599 0C83.9891 0.683521 80.0287 1.42583 76.0799 2.22667C75.9917 2.44475 75.9917 2.68858 76.0799 2.90667C76.0799 3.52 76.0799 3.49333 77.4132 3.78667C77.7866 3.86667 78.1466 4.01333 78.4799 4.18667C79.0666 4.73333 79.4532 5.45333 79.5866 6.22667C79.9199 8.45333 80.0266 10.72 79.9066 12.9733V38.76L80.7066 38.9333C81.9066 39.2 85.2532 39.7467 86.3599 39.8667C88.5599 40.04 90.7599 40.04 92.9599 39.8667C95.3841 39.6286 97.6981 38.7362 99.6544 37.2848C101.611 35.8335 103.136 33.8777 104.067 31.6267C104.613 30.1867 105 28.6933 105.2 27.16C105.373 25.0933 105.307 23.0133 104.987 20.96C104.656 18.6532 103.625 16.5037 102.031 14.8031C100.438 13.1025 98.3603 11.9331 96.0799 11.4533V11.4667ZM88.2932 37.3867C88.2932 37.0133 87.9866 24.1467 88.0532 19.0133V14.9867L88.9199 14.7867C89.4932 14.6933 90.0799 14.6933 90.6666 14.7867C91.3066 14.72 91.9599 14.8667 92.5066 15.1867C93.6138 15.9366 94.5352 16.9293 95.2007 18.0892C95.8661 19.2492 96.258 20.5457 96.3466 21.88C96.5599 24.0133 96.5599 26.1733 96.3466 28.32C96.1647 31.4348 94.9495 34.4 92.8932 36.7467C92.3066 37.28 91.5732 37.6533 90.7866 37.8C90.1866 37.9067 89.5732 37.9067 88.9732 37.8C88.4132 37.8 88.4132 37.6267 88.4132 37.4H88.2799L88.2932 37.3867Z" fill="#DEE0FF"/>
</g>
<defs>
<clipPath id="clip0_74_578">
<rect width="154.667" height="40" fill="white"/>
</clipPath>
</defs>
</svg>
