<svg width="124" height="40" viewBox="0 0 124 40" fill="none" xmlns="http://www.w3.org/2000/svg">
<path d="M53.2981 21.0526C53.2981 26.8 48.7507 31.0526 43.1507 31.0526C41.8228 31.0808 40.5028 30.8425 39.2686 30.3518C38.0344 29.8611 36.9111 29.1279 35.9651 28.1956C35.0191 27.2634 34.2696 26.1509 33.7609 24.9241C33.2522 23.6972 32.9946 22.3808 33.0033 21.0526C33.0033 15.2632 37.5612 11.0526 43.1507 11.0526C48.7507 11.0526 53.2981 15.2632 53.2981 21.0526ZM48.856 21.0526C48.856 17.4526 46.2244 14.9895 43.1507 14.9895C40.0981 14.9895 37.4454 17.4526 37.4454 21.0526C37.4454 24.6105 40.0876 27.1053 43.1507 27.1053C46.2139 27.1053 48.856 24.6105 48.856 21.0526ZM75.1928 21.0526C75.1928 26.8 70.6454 31.0526 65.0454 31.0526C63.7176 31.0808 62.3975 30.8425 61.1634 30.3518C59.9292 29.8611 58.8059 29.1279 57.8599 28.1956C56.9139 27.2634 56.1644 26.1509 55.6557 24.9241C55.1469 23.6972 54.8893 22.3808 54.8981 21.0526C54.8981 15.2632 59.456 11.0526 65.0454 11.0526C70.6454 11.0526 75.2033 15.2632 75.2033 21.0526H75.1928ZM70.7612 21.0526C70.7612 17.4526 68.1191 14.9895 65.0454 14.9895C61.9928 14.9895 59.3402 17.4526 59.3402 21.0526C59.3402 24.6105 61.9823 27.1053 65.0454 27.1053C68.1191 27.1053 70.7612 24.6105 70.7612 21.0526ZM96.1823 11.6632V29.6C96.1823 36.9895 91.7718 40 86.5718 40C84.6607 40.0181 82.7875 39.4672 81.1904 38.4175C79.5934 37.3678 78.3447 35.8667 77.6033 34.1053L81.4665 32.5263C81.8705 33.5538 82.5702 34.4383 83.4771 35.0679C84.384 35.6975 85.4574 36.0439 86.5612 36.0632C89.8981 36.0632 91.9612 34.0316 91.9612 30.2105V28.7684H91.8033C91.1322 29.5093 90.3086 30.0962 89.3892 30.4887C88.4698 30.8811 87.4763 31.0699 86.477 31.0421C81.4244 31.0421 76.7928 26.6842 76.7928 21.0842C76.7928 15.4421 81.4244 11.0526 86.477 11.0526C88.8981 11.0526 90.8139 12.1053 91.8033 13.2947H91.9612V11.6632H96.1823ZM92.2876 21.0842C92.2876 17.5684 89.8981 14.9895 86.877 14.9895C83.8139 14.9895 81.2454 17.5684 81.2454 21.0947C81.2454 24.5684 83.8139 27.1053 86.877 27.1053C89.8981 27.1053 92.277 24.5789 92.277 21.0842H92.2876ZM103.14 1.13684V30.4316H98.8033V1.13684H103.14ZM120.035 24.3368L123.477 26.6105C122.543 27.9835 121.285 29.1051 119.814 29.8762C118.344 30.6473 116.706 31.0441 115.045 31.0316C113.725 31.0586 112.412 30.8193 111.186 30.3282C109.959 29.8371 108.844 29.1041 107.907 28.1729C106.97 27.2417 106.23 26.1313 105.731 24.9081C105.232 23.6848 104.985 22.3736 105.003 21.0526C105.003 15.1158 109.33 11.0526 114.551 11.0526C119.803 11.0526 122.361 15.1895 123.203 17.4211L123.666 18.5579L110.14 24.0737C110.563 25.0101 111.256 25.7989 112.13 26.339C113.004 26.8791 114.019 27.1459 115.045 27.1053C116.044 27.1122 117.027 26.8609 117.899 26.3758C118.771 25.8908 119.504 25.1884 120.024 24.3368H120.035ZM109.403 20.7474L118.456 17.0316C117.951 15.7895 116.456 14.9263 114.698 14.9263C113.967 14.9559 113.249 15.1306 112.586 15.4403C111.923 15.75 111.329 16.1885 110.837 16.7302C110.345 17.272 109.966 17.9061 109.722 18.5958C109.477 19.2855 109.373 20.0169 109.414 20.7474H109.403ZM16.6033 18.4526V14.2105H31.0665C31.2033 14.9474 31.277 15.8211 31.277 16.7684C31.277 19.9474 30.4033 23.8842 27.5612 26.6842C24.8033 29.5263 21.277 31.0421 16.6139 31.0421C7.94019 31.0421 0.666504 24.0737 0.666504 15.5158C0.666504 6.96842 7.95071 0 16.6033 0C21.3928 0 24.8139 1.85263 27.3718 4.27368L24.3402 7.27368C22.2562 5.29143 19.4793 4.20333 16.6033 4.24211C10.2876 4.24211 5.34019 9.27368 5.34019 15.5158C5.34019 21.7684 10.2876 26.8 16.6033 26.8C20.7086 26.8 23.0349 25.1684 24.5297 23.6947C25.7507 22.4947 26.5402 20.7789 26.856 18.4421H16.6033V18.4526Z" fill="#DEE0FF"/>
</svg>
